<?xml version="1.0" encoding="utf-8"?>
<!-- Generator: Adobe Illustrator 21.1.0, SVG Export Plug-In . SVG Version: 6.00 Build 0)  -->
<svg version="1.1" id="Layer_1" xmlns="http://www.w3.org/2000/svg" xmlns:xlink="http://www.w3.org/1999/xlink" x="0px" y="0px"
	 viewBox="0 0 83.3 81.8" style="enable-background:new 0 0 83.3 81.8;" xml:space="preserve">
<title>Artboard 68</title>
<path d="M78.8,0H4.5C2,0,0,2,0,4.5v72.8c0,2.5,2,4.5,4.5,4.5h74.3c2.5,0,4.5-2,4.5-4.5V4.5C83.3,2,81.3,0,78.8,0z M80.3,77.3
	c0,0.8-0.7,1.5-1.5,1.5H4.5c-0.8,0-1.5-0.7-1.5-1.5V16.7h77.3V77.3z M80.3,13.6H3V4.5C3,3.7,3.7,3,4.5,3h74.3c0.8,0,1.5,0.7,1.5,1.5
	V13.6z"/>
<path d="M11.5,73.8h59.3c2.5,0,4.5-2,4.5-4.5v-37c0-2.5-2-4.5-4.5-4.5H11.5c-2.5,0-4.5,2-4.5,4.5v23.6l0,0v13.4
	C7,71.8,9,73.8,11.5,73.8z M41.1,70.8h-5.6c1.4-4.8,1.1-9.9-0.8-14.4c5.2,0.9,8.7,5.8,7.8,11C42.3,68.6,41.8,69.8,41.1,70.8
	L41.1,70.8z M50.7,70.8h-6.2c2.8-6.3-0.1-13.7-6.4-16.5c-1.6-0.7-3.3-1.1-5.1-1.1l0,0c-1.3-2-2.9-3.7-4.7-5.2c7.8-2.1,16,1.2,20.3,8
	c0.1,0.4,0.3,0.7,0.6,0.9C51.5,61.2,52.1,66.2,50.7,70.8L50.7,70.8z M58.7,70.7c0,0,0,0.1,0,0.1h-4.9c1.1-4.4,0.7-9-1-13.2
	c5,1.5,7.9,6.9,6.4,11.9C59.1,70,58.9,70.4,58.7,70.7L58.7,70.7z M67.9,70.8h-6c2.2-6.5-1.2-13.7-7.8-15.9c-1-0.3-2-0.6-3.1-0.6
	c-1.3-2.1-3-3.9-5-5.4c9.9-2.2,19.7,4,21.9,13.9C68.6,65.5,68.6,68.2,67.9,70.8L67.9,70.8z M9.9,32.4c0-0.8,0.7-1.5,1.5-1.5h59.4
	c0.8,0,1.5,0.7,1.5,1.5v37c0,0.7-0.6,1.4-1.3,1.5c2.2-11.6-5.4-22.8-16.9-25c-1.3-0.3-2.7-0.4-4.1-0.4c-2.4,0-4.7,0.4-7,1.2
	c-0.1,0-0.2,0.1-0.3,0.2c-5.2-2.6-11.2-3.1-16.7-1.2c-0.3,0.1-0.5,0.3-0.7,0.5c-4.7-2.6-10.2-3.3-15.3-2L9.9,32.4z M9.9,47.1
	c9.7-2.8,19.9,2.8,22.7,12.5c1.1,3.7,0.9,7.6-0.3,11.2H26c3.3-6.1,1.1-13.7-4.9-17c-3.4-1.9-7.5-2.1-11.1-0.5L9.9,47.1z M9.9,56.7
	c4.4-2.9,10.3-1.6,13.2,2.8c2.3,3.5,2,8.1-0.7,11.3H11.5c-0.8,0-1.5-0.7-1.5-1.5L9.9,56.7z"/>
<path d="M8.5,23.7h65.3c0.8,0,1.5-0.7,1.5-1.5s-0.7-1.5-1.5-1.5H8.5c-0.8,0-1.5,0.7-1.5,1.5S7.7,23.7,8.5,23.7z"/>
<circle cx="9.9" cy="8.1" r="2.1"/>
<circle cx="17.9" cy="8.1" r="2.1"/>
<circle cx="25.9" cy="8.1" r="2.1"/>
<circle cx="33.9" cy="8.1" r="2.1"/>
</svg>
