<?xml version="1.0" encoding="utf-8"?>
<!-- Generator: Adobe Illustrator 21.0.0, SVG Export Plug-In . SVG Version: 6.00 Build 0)  -->
<svg version="1.1" id="Layer_1" xmlns="http://www.w3.org/2000/svg" xmlns:xlink="http://www.w3.org/1999/xlink" x="0px" y="0px"
	 viewBox="0 0 235.1 255.2" style="enable-background:new 0 0 235.1 255.2;" xml:space="preserve">
<g>
	<path d="M220,0h-205C6.8,0,0,6.8,0,15.1v225.1c0,8.3,6.8,15.1,15.1,15.1h205c8.3,0,15.1-6.8,15.1-15.1V15.1
		C235.1,6.8,228.3,0,220,0z M220,249.2h-205c-5,0-9-4.1-9-9V59.4h223v180.7C229.1,245.1,225,249.2,220,249.2z M6,55.4v-3.2h223v3.2
		H6z M15.1,6h205c5,0,9,4.1,9,9v33.1H6V15.1C6,10.1,10.1,6,15.1,6z"/>
	<path d="M208.4,73.8H26.7c-2,0-3.6,1.6-3.6,3.6v13.9c0,2,1.6,3.6,3.6,3.6h181.7c2,0,3.6-1.6,3.6-3.6V77.5
		C212,75.5,210.4,73.8,208.4,73.8z M208,90.9H27.1V77.9H208V90.9z"/>
</g>
</svg>
