<?xml version="1.0" encoding="utf-8"?>
<!-- Generator: Adobe Illustrator 21.0.0, SVG Export Plug-In . SVG Version: 6.00 Build 0)  -->
<svg version="1.1" id="Layer_1" xmlns="http://www.w3.org/2000/svg" xmlns:xlink="http://www.w3.org/1999/xlink" x="0px" y="0px"
	 viewBox="0 0 213 255.2" style="enable-background:new 0 0 213 255.2;" xml:space="preserve">
<g>
	<path d="M197.9,0H15.1C6.8,0,0,6.8,0,15.1v225.1c0,8.3,6.8,15.1,15.1,15.1h182.9c8.3,0,15.1-6.8,15.1-15.1V15.1
		C213,6.8,206.2,0,197.9,0z M197.9,249.2H15.1c-5,0-9-4.1-9-9V58.9H207v181.2C207,245.1,202.9,249.2,197.9,249.2z M6,55.9v-4.2H207
		v4.2H6z M15.1,6h182.9c5,0,9,4.1,9,9v33.6H6V15.1C6,10.1,10.1,6,15.1,6z"/>
	<circle cx="40.2" cy="27.7" r="6.4"/>
	<circle cx="65.5" cy="27.7" r="6.4"/>
	<circle cx="90.9" cy="27.7" r="6.4"/>
	<path d="M106.5,95c-29.3,0-53.2,23.9-53.2,53.2s23.9,53.2,53.2,53.2s53.2-23.9,53.2-53.2S135.8,95,106.5,95z M106.5,195.4
		c-26,0-47.2-21.2-47.2-47.2S80.5,101,106.5,101s47.2,21.2,47.2,47.2S132.5,195.4,106.5,195.4z"/>
	<path d="M147.8,140.6l-0.8,0.2c0,0-14.6,10.4-24.8,11.7c-8.5,1.1-17.4,0-26.6-6c0,0-12-10-30.6-1h-0.3c0,0.6,0,1.1,0,1.7
		c0,1.6,0.1,3.2,0.2,4.8C67.3,172.9,85,189,106.5,189c23.1,0,41.9-18.7,41.9-41.9C148.4,144.9,148.2,142.8,147.8,140.6z"/>
	<path d="M160.1,213.5c-7.8,0-14.2,6.4-14.2,14.2c0,7.8,6.4,14.2,14.2,14.2c7.8,0,14.2-6.4,14.2-14.2
		C174.3,219.9,167.9,213.5,160.1,213.5z M160.1,239c-6.2,0-11.2-5-11.2-11.2s5-11.2,11.2-11.2s11.2,5,11.2,11.2S166.3,239,160.1,239
		z"/>
	<circle cx="148.2" cy="27.7" r="6.4"/>
	<circle cx="173.5" cy="27.7" r="6.4"/>
</g>
</svg>
