<?xml version="1.0" encoding="utf-8"?>
<!-- Generator: Adobe Illustrator 21.1.0, SVG Export Plug-In . SVG Version: 6.00 Build 0)  -->
<svg version="1.1" id="Layer_1" xmlns="http://www.w3.org/2000/svg" xmlns:xlink="http://www.w3.org/1999/xlink" x="0px" y="0px"
	 viewBox="0 0 65 90" style="enable-background:new 0 0 65 90;" xml:space="preserve">
<path d="M13.8,45c0,10.1,8.2,18.4,18.3,18.4c5.3,0,10.3-2.3,13.8-6.3c1.5-1.7,0.4-3.7-0.8-6.1c-0.9-1.8-2-3.9-2-6c0-2.1,1-4.2,1.9-6
	c1.2-2.4,2.3-4.5,0.8-6.2c-3.5-3.9-8.5-6.1-13.7-6.1C22,26.6,13.8,34.9,13.8,45z M25.3,58.6c-0.1,0.2-0.3,0.3-0.4,0.3
	c-0.1,0-0.2,0-0.2-0.1c-4.3-2.4-7.2-6.6-7.9-11.5c0-0.3,0.2-0.5,0.4-0.6c0.3,0,0.5,0.2,0.6,0.4c0.7,4.5,3.4,8.5,7.4,10.7
	C25.4,58,25.4,58.3,25.3,58.6z M29.7,60.5C29.7,60.5,29.6,60.5,29.7,60.5c-1.2-0.2-2.3-0.5-3.4-0.9c-0.3-0.1-0.4-0.4-0.3-0.7
	c0.1-0.3,0.4-0.4,0.7-0.3c1,0.4,2,0.7,3.1,0.9c0.3,0,0.5,0.3,0.4,0.6C30.2,60.3,29.9,60.5,29.7,60.5z M0,14.1V76h65V14.5
	c-11,1.9-20.5,3-31.4,3C21.7,17.5,11,16.3,0,14.1z M56.8,45c0,13.7-11.1,24.8-24.7,24.8S7.5,58.7,7.5,45s11.1-24.8,24.7-24.8
	S56.8,31.4,56.8,45z M8.5,45c0,13.1,10.6,23.7,23.6,23.7S55.8,58.1,55.8,45S45.2,21.3,32.1,21.3S8.5,31.9,8.5,45z M46.6,32.1
	c2,2.2,0.7,4.8-0.6,7.4c-0.9,1.8-1.8,3.7-1.8,5.6c0,1.9,0.9,3.7,1.9,5.5c1.3,2.5,2.6,5.1,0.7,7.3c-3.7,4.2-9,6.6-14.5,6.6
	c-10.7,0-19.3-8.7-19.3-19.4s8.7-19.4,19.3-19.4C37.6,25.6,42.9,28,46.6,32.1z M0,90h40v-7.4c0-1,0.7-1.6,1.8-1.6h14.5
	c0.9,0,1.7,0.6,1.7,1.5V90h7V77H0V90z M34,10.6c0.9,0,1.6-0.7,1.6-1.6S34.9,7.4,34,7.4c-0.9,0-1.6,0.7-1.6,1.6S33.1,10.6,34,10.6z
	 M56.2,82H41.7c-0.4,0-0.7,0.3-0.7,0.7V90h16v-7.3C57,82.2,56.7,82,56.2,82z M0,2h65V0H0V2z M0,13c6,1.5,14,2.5,22,3V3H0V13z M7,6h8
	c0.3,0,0.5,0.2,0.5,0.5S15.3,7,15,7H7C6.7,7,6.5,6.8,6.5,6.5S6.7,6,7,6z M23,3v13.1c3,0.2,7.2,0.3,10.8,0.3c11,0,22.2-1,31.2-3V3H23
	z M28.8,13h-3.1c-0.3,0-0.5-0.2-0.5-0.5s0.2-0.5,0.5-0.5h3.1c0.3,0,0.5,0.2,0.5,0.5S29.1,13,28.8,13z M28.8,10h-3.1
	c-0.3,0-0.5-0.2-0.5-0.5S25.5,9,25.8,9h3.1c0.3,0,0.5,0.2,0.5,0.5S29.1,10,28.8,10z M28.8,7h-3.1c-0.3,0-0.5-0.2-0.5-0.5
	S25.5,6,25.8,6h3.1c0.3,0,0.5,0.2,0.5,0.5S29.1,7,28.8,7z M34,11.7c-1.5,0-2.7-1.2-2.7-2.7s1.2-2.7,2.7-2.7c1.5,0,2.7,1.2,2.7,2.7
	S35.5,11.7,34,11.7z M42.1,13h-3.1c-0.3,0-0.5-0.2-0.5-0.5s0.2-0.5,0.5-0.5h3.1c0.3,0,0.5,0.2,0.5,0.5S42.4,13,42.1,13z M42.1,10
	h-3.1c-0.3,0-0.5-0.2-0.5-0.5S38.8,9,39.1,9h3.1c0.3,0,0.5,0.2,0.5,0.5S42.4,10,42.1,10z M42.1,7h-3.1c-0.3,0-0.5-0.2-0.5-0.5
	S38.8,6,39.1,6h3.1c0.3,0,0.5,0.2,0.5,0.5S42.4,7,42.1,7z M58,7h-8c-0.3,0-0.5-0.2-0.5-0.5S49.7,6,50,6h8c0.3,0,0.5,0.2,0.5,0.5
	S58.3,7,58,7z"/>
</svg>
