<?xml version="1.0" encoding="utf-8"?>
<!-- Generator: Adobe Illustrator 21.0.0, SVG Export Plug-In . SVG Version: 6.00 Build 0)  -->
<svg version="1.1" id="Layer_1" xmlns="http://www.w3.org/2000/svg" xmlns:xlink="http://www.w3.org/1999/xlink" x="0px" y="0px"
	 viewBox="0 0 168.8 255.2" style="enable-background:new 0 0 168.8 255.2;" xml:space="preserve">
<g>
	<path d="M153.7,0H15.1C6.8,0,0,6.8,0,15.1v225.1c0,8.3,6.8,15.1,15.1,15.1h138.7c8.3,0,15.1-6.8,15.1-15.1V15.1
		C168.8,6.8,162,0,153.7,0z M153.7,249.2H15.1c-5,0-9-4.1-9-9V118h156.8v122.2C162.8,245.1,158.7,249.2,153.7,249.2z M6,115v-5.1
		h156.8v5.1H6z M15.1,6h138.7c5,0,9,4.1,9,9v91.7H6V15.1C6,10.1,10.1,6,15.1,6z"/>
	<path d="M23.8,94.5h13.9c1.7,0,3.1-1.4,3.1-3.1V71.3c0-1.7-1.4-3.1-3.1-3.1H23.8c-1.7,0-3.1,1.4-3.1,3.1v20.1
		C20.7,93.1,22.1,94.5,23.8,94.5z M23.8,71.2l14,0.1l-0.1,20.2H23.8c-0.1,0-0.1,0-0.1-0.1L23.8,71.2z"/>
	<path d="M37.4,128.5H23.6c-1.7,0-3.1,1.4-3.1,3.1v20.1c0,1.7,1.4,3.1,3.1,3.1h13.9c1.7,0,3.1-1.4,3.1-3.1v-20.1
		C40.6,129.9,39.2,128.5,37.4,128.5z M37.4,151.8H23.6c-0.1,0-0.1,0-0.1-0.1l0.1-20.2l14,0.1L37.4,151.8z"/>
</g>
</svg>
