<?xml version="1.0" encoding="utf-8"?>
<!-- Generator: Adobe Illustrator 21.1.0, SVG Export Plug-In . SVG Version: 6.00 Build 0)  -->
<svg version="1.1" id="Layer_1" xmlns:sketch="http://www.bohemiancoding.com/sketch/ns"
	 xmlns="http://www.w3.org/2000/svg" xmlns:xlink="http://www.w3.org/1999/xlink" x="0px" y="0px" viewBox="0 0 275 300"
	 style="enable-background:new 0 0 275 300;" xml:space="preserve">
<title>appliances</title>
<desc>Created with Sketch.</desc>
<g id="Page-1" sketch:type="MSPage">
	<g id="appliances" transform="translate(0.500000, 0.000000)" sketch:type="MSArtboardGroup">
		<g id="Layer_x0020_1" transform="translate(128.000000, 115.000000)" sketch:type="MSLayerGroup">
			<path id="Shape" sketch:type="MSShapeGroup" d="M81.7-4.1H-8.8L-39.6-115h149.3L81.7-4.1z"/>
			<rect id="Rectangle-path" x="-28.8" y="144.3" sketch:type="MSShapeGroup" width="133.1" height="12.4">
			</rect>
			<g id="_556637303440" transform="translate(105.932671, 181.029263)" sketch:type="MSShapeGroup">
				<path id="Shape_1_" d="M-128.5-109.6v-5.4h43.4v5.4H-128.5z"/>
			</g>
			<g id="_556637303824" transform="translate(105.932671, 194.954591)" sketch:type="MSShapeGroup">
				<path id="Shape_2_" d="M-128.5-109.4v-5.6h43.4v5.6H-128.5z"/>
			</g>
			<g id="_556637305200" transform="translate(105.932671, 208.879919)" sketch:type="MSShapeGroup">
				<path id="Shape_3_" d="M-128.5-109.4v-5.6h43.4v5.6H-128.5z"/>
			</g>
			<g id="_556637303760" transform="translate(88.479581, 124.571140)" sketch:type="MSShapeGroup">
				<path id="Shape_4_" d="M55.1-65.7c0-15.7-12.7-28.5-28.5-28.5H8.4V-115h-123.5l4.9,21.9c-2.6,1.5-4.2,4.2-4.2,7.3
					c0,1.5,0.5,2.9,1.2,4.1c-7.4,4.1-12.3,11.8-12.3,20.7l-2.9,53.3c0,13.2,10.6,23.6,23.5,23.6H2.6c13.1,0,23.5-10.4,23.5-23.5
					h-3.3l3.3-0.2l-2.7-53.6c0-6.2-2.6-12-6.7-16.2h9.9c6.5,0,11.7,5.3,11.7,11.8v0.3l1.2,34.2c0.2,4.5,3.8,8.2,8.3,8.2h0.3
					c4.7-0.2,8.2-4.1,8.2-8.6L55.1-65.7L55.1-65.7z M1.7-108.3v14.2h-105.3l-3.2-14.2H1.7L1.7-108.3z M16.6-61l2.7,53.4
					c0,9.2-7.4,16.6-16.7,16.8H-105c-9.3-0.2-16.7-7.6-16.7-16.8l2.7-53.3c0-8.2,5.8-15,13.4-16.6H3.2C10.8-75.8,16.6-69.1,16.6-61
					L16.6-61z"/>
			</g>
			<path id="Shape_5_" sketch:type="MSShapeGroup" d="M-96.6-43.9C-116.4,31.7-127,108-128.5,185h29.3h245.7l-11.2-24.2H-54.6v-42.5
				C-53.5,20.2-43.5-34-24.7-44.2l-20-70.8h-30.7C-83.3-91.4-90.4-67.6-96.6-43.9L-96.6-43.9z"/>
		</g>
	</g>
</g>
</svg>
