<?xml version="1.0" encoding="utf-8"?>
<!-- Generator: Adobe Illustrator 21.0.0, SVG Export Plug-In . SVG Version: 6.00 Build 0)  -->
<svg version="1.1" id="Layer_1" xmlns="http://www.w3.org/2000/svg" xmlns:xlink="http://www.w3.org/1999/xlink" x="0px" y="0px"
	 viewBox="0 0 292.4 255.2" style="enable-background:new 0 0 292.4 255.2;" xml:space="preserve">
<g>
	<path d="M275.1,0H17.2C7.7,0,0,7.7,0,17.2V238c0,9.5,7.7,17.2,17.2,17.2h257.9c9.5,0,17.2-7.7,17.2-17.2V17.2
		C292.4,7.7,284.6,0,275.1,0z M122.7,113.9h47c2.7,0,4.9-2.2,4.9-4.9V89.8h40.8l0,113.3c0,3.1-2.5,5.6-5.6,5.6l-127.1,0c0,0,0,0,0,0
		c-1.5,0-2.9-0.6-4-1.7c-1.1-1.1-1.7-2.5-1.7-4l0-113.3h40.8V109C117.8,111.7,120,113.9,122.7,113.9z M70.1,89.8l0,113.3
		c0,3.3,1.3,6.5,3.7,8.9c2.4,2.4,5.5,3.7,8.9,3.7c0,0,0,0,0,0l127.1,0c6.9,0,12.5-5.6,12.5-12.5l0-113.3h63.2V238
		c0,5.7-4.6,10.3-10.3,10.3H17.2c-5.7,0-10.3-4.6-10.3-10.3V89.8H70.1z M171.1,86.4V109c0,0.8-0.6,1.4-1.4,1.4h-47
		c-0.8,0-1.4-0.6-1.4-1.4V86.4H6.9v-6.9h278.6v6.9H171.1z M17.2,6.9h257.9c5.7,0,10.3,4.6,10.3,10.3V76H6.9V17.2
		C6.9,11.5,11.5,6.9,17.2,6.9z"/>
	<path d="M94.4,47.7H198c2,0,3.6-1.6,3.6-3.6V37c0-2-1.6-3.6-3.6-3.6H94.4c-2,0-3.6,1.6-3.6,3.6v7.1C90.8,46.1,92.4,47.7,94.4,47.7z
		 M94.4,36.9L198.1,37v7.1c0,0.1,0,0.1-0.1,0.1L94.3,44.1L94.4,36.9z"/>
	<path d="M114.8,172.8c0,17,13.8,30.8,30.8,30.8s30.8-13.8,30.8-30.8v-2.2h3.1c6.1,0,11.1-5,11.1-11.1v-5.6c0-6.1-5-11.1-11.1-11.1
		h-3.1v-13h-61.7V172.8z M118.2,133.3H173v13h6.6c4.2,0,7.6,3.4,7.6,7.6v5.6c0,4.2-3.4,7.6-7.6,7.6H173v5.7
		c0,15.1-12.3,27.4-27.4,27.4s-27.4-12.3-27.4-27.4V133.3z"/>
</g>
</svg>
