<?xml version="1.0" encoding="utf-8"?>
<!-- Generator: Adobe Illustrator 21.1.0, SVG Export Plug-In . SVG Version: 6.00 Build 0)  -->
<svg version="1.1" id="Layer_1" xmlns="http://www.w3.org/2000/svg" xmlns:xlink="http://www.w3.org/1999/xlink" x="0px" y="0px"
	 viewBox="0 0 303 303" style="enable-background:new 0 0 303 303;" xml:space="preserve">
<style type="text/css">
	.st0{fill:#4A99C8;}
	.st1{fill:#293343;}
	.st2{fill:none;stroke:#000000;stroke-width:3;stroke-miterlimit:10;}
</style>
<g id="_x23_dfe1e5ff">
</g>
<g id="_x23_4a99c8ff">
	<path class="st0" d="M170.3,75.2c17.3-0.1,34.6,7.5,45.9,20.7c10.8,12.2,15.9,28.6,16.2,44.7c-0.8-0.1-2.3-0.2-3.1-0.3
		c-0.8-9.2-1.9-18.5-5.9-26.9c-6.1-14.2-18-25.9-32.6-31.3c-6.5-2.5-13.5-3.5-20.5-3.8C170.3,77.6,170.3,76,170.3,75.2z"/>
	<path class="st0" d="M170.3,90.4c13,0.4,26,5.7,34.5,15.8c8.1,9.4,12.2,22,12.1,34.3c-0.8,0-2.4,0-3.2,0c0.1-14.8-6.2-30-18.4-38.8
		c-7.2-5.3-16.1-7.7-24.9-8.2C170.3,92.8,170.3,91.2,170.3,90.4z"/>
	<path class="st0" d="M170.3,106.3c6.9,0.5,13.9,2.5,19.2,7.2c7.8,6.6,11.3,17,11.4,27c-0.8,0-2.4,0-3.2,0
		c-0.2-9.4-3.5-19.2-11.1-25.2c-4.6-3.8-10.5-5.2-16.3-5.7C170.3,108.8,170.3,107.1,170.3,106.3z"/>
</g>
<g id="_x23_293343ff">
	<path class="st1" d="M80,123.1c5.6-1.3,12.1,0.4,15.4,5.3c4.4,6.4,4.4,15.7,0,22.1c-5.3,7.8-18.7,7.7-23.8-0.3
		C65.7,141.4,68.5,125.7,80,123.1 M79.8,126.6c-6.5,2.8-8.4,11.1-6.7,17.4c1.2,5.9,7.3,10.6,13.3,8.8c8-2.2,10.1-12.5,7.4-19.4
		C92.1,127.7,85.3,124.2,79.8,126.6z"/>
	<path class="st1" d="M108.7,129c2.1-2.6,4.4-5.5,7.9-6c4.7-1.3,10.1,0.8,12.1,5.5c3.8-7.7,17.9-8.1,20.1,1c1.1,8.6,0.2,17.3,0.5,26
		c-1.3,0-2.5,0-3.8,0c0-7,0-14,0-21.1c0-2.8-0.5-6.3-3.4-7.7c-3.4-1.6-8-1.2-10.5,1.8c-2.2,2.8-2.4,6.5-2.5,10c0,5.6,0,11.3,0,16.9
		c-1.3,0-2.6,0-3.8,0c0-7,0-14,0-21c0-2.4-0.3-5-2-6.8c-2.4-2.4-6.4-2.2-9.3-0.7c-3.5,1.8-4.7,6-4.9,9.6c-0.2,6.3-0.1,12.5,0,18.8
		c-1.3,0.1-2.6,0.1-3.9,0.2c0-10.7,0-21.3,0-32c0.9,0,2.6,0,3.5,0C108.8,125.3,108.7,127.2,108.7,129z"/>
	<path class="st1" d="M159.7,127.9c4.8-6.9,16.6-7.1,21.5-0.2c2.8,3.7,3.3,8.4,3.5,12.8c-8.3,0-16.5,0-24.8,0
		c0.5,3.4,1.1,7.1,3.7,9.7c3.4,3.6,9.5,3.8,13.4,0.8c2-1.5,2.8-4,3.9-6.2c1.2,0,2.5,0,3.8,0.1c-1.2,3.1-2.3,6.6-5.1,8.7
		c-3.9,3-9.5,3.3-14.1,1.9c-4.6-1.4-7.6-5.8-8.6-10.4C155.7,139.4,156.2,132.9,159.7,127.9 M164.3,128.4c-2.6,2.3-3.5,5.8-4.3,9
		c7,0,14.1,0,21.1,0c-0.6-3.3-1.4-6.9-4.2-9.2C173.4,125.1,167.7,125.1,164.3,128.4z"/>
	<path class="st1" d="M35.2,123.5c0.9,0,2.8,0,3.7,0c0,4.7,0,9.3,0,14c6.5,0,12.9,0,19.4,0c0-4.7,0-9.3,0-14c1,0,2.8,0,3.8,0
		c0,10.7,0,21.3,0,32c-1,0-2.8,0-3.8,0c0-4.7,0-9.3,0-14c-6.4,0-12.9,0-19.4,0c0.1,4.7,0,9.3,0,14c-0.9,0-2.8,0-3.7,0
		C35.2,144.8,35.2,134.2,35.2,123.5z"/>
	<path class="st1" d="M38.4,179.5c4.3-6.5,14.2-7.8,20.4-3.3c2.7,1.9,3.7,5.2,4.5,8.2c-0.9,0-2.8,0-3.7,0c-1.2-2.9-2.6-6.2-5.9-7.2
		c-5.2-2-11.3,1.1-13.3,6.2c-3,7-1.1,17.9,7.2,20.1c5.9,1.9,11.5-3.1,12.2-8.8c1.2,0,2.5,0.1,3.8,0.1c-0.9,3.1-1.8,6.3-4.2,8.6
		c-5.8,6-17,4.4-21.3-2.7C34.2,194.6,34.2,185.7,38.4,179.5z"/>
	<path class="st1" d="M79.9,174.1c5.9-1.5,12.9,0.6,16.1,5.9c3.9,6.4,3.8,15.3-0.5,21.5c-5.5,8-19.3,7.5-24.1-1
		C66.1,191.7,68.8,176.7,79.9,174.1 M81.1,177.1c-9.2,2.9-10.8,16-5.3,23c3.5,4.8,11.2,5.2,15.3,1c4.7-5,5.1-13.2,1.8-19.1
		C90.6,177.9,85.5,175.8,81.1,177.1z"/>
	<path class="st1" d="M151.3,174.2c5.7-2,14.1,0.2,15,7.1c0.9,8.3,0.2,16.7,0.4,25.1c-1.3,0-2.6-0.1-3.9-0.1c0-6.3,0-12.6,0-18.9
		c-0.1-3.1-0.1-6.6-2.5-8.9c-3.8-3.2-10.2-2.2-13.1,1.7c-1.9,2.3-2.5,5.3-2.5,8.2c-0.1,6,0,12,0,17.9c-0.9,0-2.8,0-3.7-0.1
		c0-10.6,0-21.3,0-31.9c0.9,0,2.8,0,3.8,0c-0.1,1.7-0.2,3.5-0.2,5.2C146.4,177.5,148.3,175,151.3,174.2z"/>
	<path class="st1" d="M177.1,178.1c5.2-6.3,16.5-6.1,21.1,0.7c2.7,3.6,3.2,8.2,3.4,12.6c-8.3,0-16.6,0-24.9,0
		c0.6,3.3,1.1,6.8,3.4,9.3c3.5,4.1,10.3,4.3,14.3,0.8c1.6-1.6,2.4-3.8,3.4-5.8c1.2,0,2.5,0,3.8,0.1c-1.3,4.1-3.4,8.5-7.7,10.2
		c-5.7,2.2-13.3,1.5-17.3-3.7C171.8,195.3,171.9,184.9,177.1,178.1 M181.8,178.7c-3,2.2-4,6-5,9.4c7.1,0.2,14.1,0.1,21.2,0.1
		c-0.6-3.2-1.4-6.8-4-9C190.6,176.1,185.2,175.9,181.8,178.7z"/>
	<path class="st1" d="M210.7,179.6c4.1-6.3,13.4-7.7,19.7-3.9c3.1,1.9,4.4,5.4,5.3,8.7c-1.3,0-2.6,0.1-3.8,0.1
		c-1.2-2.7-2.4-5.9-5.4-7c-5.6-2.5-12.4,1.2-14,7c-2.7,7-0.2,17.6,8.1,19.3c5.8,1.4,10.8-3.5,11.6-8.9c1.3,0,2.5,0.1,3.8,0.1
		c-0.9,2.8-1.7,5.9-3.8,8.1c-5.6,6.3-16.9,5-21.4-1.9C206.5,194.9,206.4,185.9,210.7,179.6z"/>
	<path class="st1" d="M105.3,174.4c1.3,0,2.6,0.1,3.9,0.1c-0.1,1.7-0.2,3.4-0.2,5.1c3.7-6.2,12.4-7.8,18.4-4c3,2.3,3.7,6.3,3.7,9.8
		c0.1,6.9,0,13.9,0.1,20.9c-1.3,0.1-2.5,0.1-3.8,0.2c0-6.7,0-13.4,0-20c0-3-0.6-6.6-3.3-8.4c-4.3-2.8-10.9-1.1-13.3,3.5
		c-1.6,2.7-1.6,5.9-1.6,8.9c0,5.3,0,10.6,0.1,15.8c-1.3,0-2.6,0-3.9,0.1C105.3,195.8,105.3,185.1,105.3,174.4z"/>
	<path class="st1" d="M238.5,174.4c9.8,0,19.5,0,29.2,0c0,1.3,0,2.7,0,4c-4.2-0.1-8.5-0.1-12.7-0.1c0.1,9.3,0,18.7,0.1,28.1
		c-1.3,0-2.6,0.1-3.8,0.1c0-9.4-0.1-18.8,0-28.2c-4.2,0-8.5,0-12.8,0C238.5,177,238.5,175.7,238.5,174.4z"/>
</g>
<path class="st2" d="M273.2,301.5H29.8c-15.6,0-28.3-12.8-28.3-28.3V29.8c0-15.6,12.8-28.3,28.3-28.3h243.3
	c15.6,0,28.3,12.8,28.3,28.3v243.3C301.5,288.7,288.7,301.5,273.2,301.5z"/>
</svg>
