<?xml version="1.0" encoding="utf-8"?>
<!-- Generator: Adobe Illustrator 22.1.0, SVG Export Plug-In . SVG Version: 6.00 Build 0)  -->
<svg version="1.1" id="Layer_1" xmlns="http://www.w3.org/2000/svg" xmlns:xlink="http://www.w3.org/1999/xlink" x="0px" y="0px"
	 viewBox="0 0 81 81" style="enable-background:new 0 0 81 81;" xml:space="preserve">
<path d="M44.6,44.6c-2.3,2.3-5.9,2.3-8.2,0s-6.5-9.8-13.9-22.1c12.3,7.4,19.8,11.7,22.1,13.9C46.9,38.7,46.9,42.4,44.6,44.6z
	 M40.5,81C18.1,81,0,62.9,0,40.5c0-11.2,4.5-21.3,11.9-28.6l3.3,3.3C8.7,21.7,4.7,30.7,4.7,40.6c0,19.8,16.1,35.9,35.9,35.9
	s35.9-16.1,35.9-35.9c0-19-14.8-34.6-33.6-35.8v11.5h-4.6V0h4.6v0.1C64.1,1.3,81,18.9,81,40.5C81,62.9,62.9,81,40.5,81z"/>
</svg>
