<?xml version="1.0" encoding="utf-8"?>
<!-- Generator: Adobe Illustrator 21.1.0, SVG Export Plug-In . SVG Version: 6.00 Build 0)  -->
<svg version="1.1" id="Layer_1" xmlns="http://www.w3.org/2000/svg" xmlns:xlink="http://www.w3.org/1999/xlink" x="0px" y="0px"
	 viewBox="0 0 88 100" style="enable-background:new 0 0 88 100;" xml:space="preserve">
<style type="text/css">
	.st0{fill:none;}
</style>
<ellipse class="st0" cx="69.5" cy="7" rx="2.6" ry="2.9"/>
<path d="M0,100h88V14H0V100z M43.3,31.6c11.8,0,21.3,10.4,21.3,23.2S55,78,43.3,78S22,67.6,22,54.8S31.6,31.6,43.3,31.6z"/>
<path d="M0,0v12h88V0H0z M69.5,9.8c-1.4,0-2.6-1.3-2.6-2.9S68.1,4,69.5,4s2.6,1.3,2.6,2.9C72.1,8.6,70.9,9.8,69.5,9.8z M79.2,9.8
	c-1.4,0-2.6-1.3-2.6-2.9S77.8,4,79.2,4s2.6,1.3,2.6,2.9C81.9,8.6,80.7,9.8,79.2,9.8z"/>
<ellipse cx="43" cy="55.1" rx="14.8" ry="16.1"/>
</svg>
