<?xml version="1.0" encoding="utf-8"?>
<!-- Generator: Adobe Illustrator 21.0.0, SVG Export Plug-In . SVG Version: 6.00 Build 0)  -->
<svg version="1.1" id="Layer_1" xmlns="http://www.w3.org/2000/svg" xmlns:xlink="http://www.w3.org/1999/xlink" x="0px" y="0px"
	 viewBox="0 0 213 255.2" style="enable-background:new 0 0 213 255.2;" xml:space="preserve">
<g>
	<path d="M197.9,0H15.1C6.8,0,0,6.8,0,15.1v225.1c0,8.3,6.8,15.1,15.1,15.1h182.9c8.3,0,15.1-6.8,15.1-15.1V15.1
		C213,6.8,206.2,0,197.9,0z M197.9,249.2H15.1c-5,0-9-4.1-9-9V58.9H207v181.2C207,245.1,202.9,249.2,197.9,249.2z M6,55.9v-4.2H207
		v4.2H6z M15.1,6h182.9c5,0,9,4.1,9,9v33.6H6V15.1C6,10.1,10.1,6,15.1,6z"/>
	<circle cx="34.4" cy="27.6" r="7.3"/>
	<circle cx="62.9" cy="27.6" r="7.3"/>
	<circle cx="91.5" cy="27.6" r="7.3"/>
	<circle cx="176.9" cy="26.6" r="11.3"/>
	<path d="M168.6,148.2c0-34.3-27.9-62.1-62.1-62.1c-34.3,0-62.1,27.9-62.1,62.1s27.9,62.1,62.1,62.1
		C140.8,210.3,168.6,182.5,168.6,148.2z M106.5,204.3c-30.9,0-56.1-25.2-56.1-56.1s25.2-56.1,56.1-56.1c30.9,0,56.1,25.2,56.1,56.1
		S137.4,204.3,106.5,204.3z"/>
	<path d="M135,247.2h39.7v-31.6H135V247.2z M138,218.5h33.7v25.6H138V218.5z"/>
</g>
</svg>
