<?xml version="1.0" encoding="utf-8"?>
<!-- Generator: Adobe Illustrator 21.1.0, SVG Export Plug-In . SVG Version: 6.00 Build 0)  -->
<svg version="1.1" id="Layer_1" xmlns="http://www.w3.org/2000/svg" xmlns:xlink="http://www.w3.org/1999/xlink" x="0px" y="0px"
	 viewBox="0 0 83.3 76.6" style="enable-background:new 0 0 83.3 76.6;" xml:space="preserve">
<path d="M7.9,68.8h67.6V30.7H7.9V68.8z M27.4,60c1.4-2.5,3.5-4.6,6-6.1c2-1.2,4.3-1.9,6.6-2.1c-1-2.1-1.5-4.4-1.5-6.7
	c0-2.9,0.8-5.7,2.3-8.2l0.9-1.4l0.8,1.4c1.5,2.4,2.3,5.3,2.3,8.2c0,2.3-0.5,4.6-1.5,6.7c2.3,0.2,4.6,0.9,6.6,2.1
	c2.6,1.4,4.6,3.6,6,6.1l0.8,1.5h-1.6c-2.9,0.1-5.8-0.6-8.3-2.1c-2.1-1.2-3.8-2.8-5.1-4.7c-1.4,1.9-3.1,3.5-5.1,4.7
	c-2.5,1.4-5.4,2.2-8.3,2.1h-1.6L27.4,60z"/>
<path d="M39.8,53.9c-1.9,0.2-3.7,0.8-5.4,1.8c-1.6,1-3.1,2.3-4.2,3.8c1.9-0.2,3.7-0.8,5.4-1.8S38.8,55.4,39.8,53.9z"/>
<path d="M47.8,57.7c1.6,0.9,3.5,1.5,5.3,1.8c-1.1-1.5-2.5-2.8-4.2-3.8c-1.6-1-3.5-1.6-5.4-1.8C44.7,55.4,46.1,56.7,47.8,57.7z"/>
<path d="M42.9,45.1c0-1.9-0.4-3.8-1.2-5.5c-0.8,1.7-1.2,3.6-1.2,5.5s0.4,3.9,1.2,5.6C42.5,49,42.9,47,42.9,45.1z"/>
<rect x="34.1" y="6" width="15.3" height="2.4"/>
<circle cx="57.3" cy="7.2" r="1.2"/>
<circle cx="66.4" cy="7.2" r="1.2"/>
<path d="M0,76.6h83.3V17H0V76.6z M5.9,21.8h71.7v2H5.9V21.8z M5.9,28.7h71.6v42H5.9V28.7z"/>
<circle cx="17" cy="7.2" r="1.2"/>
<path d="M0,0v15h83.3V0C83.3,0,0,0,0,0z M17,10.4c-1.8,0-3.2-1.4-3.2-3.2C13.8,5.4,15.2,4,17,4c1.8,0,3.2,1.4,3.2,3.2
	S18.8,10.4,17,10.4z M26.2,10.4C24.4,10.4,23,9,23,7.2C23,5.4,24.4,4,26.2,4s3.2,1.4,3.2,3.2S28,10.4,26.2,10.4z M51.4,10.4H32.1V4
	h19.3V10.4z M57.3,10.4c-1.8,0-3.2-1.4-3.2-3.2c0-1.8,1.4-3.2,3.2-3.2c1.8,0,3.2,1.4,3.2,3.2C60.5,9,59.1,10.4,57.3,10.4z
	 M66.4,10.4c-1.8,0-3.2-1.4-3.2-3.2c0-1.8,1.5-3.2,3.2-3.2c1.8,0,3.2,1.4,3.2,3.2C69.6,9,68.2,10.4,66.4,10.4z"/>
<circle cx="26.2" cy="7.2" r="1.2"/>
</svg>
