<?xml version="1.0" encoding="utf-8"?>
<!-- Generator: Adobe Illustrator 21.0.0, SVG Export Plug-In . SVG Version: 6.00 Build 0)  -->
<svg version="1.1" id="Layer_1" xmlns="http://www.w3.org/2000/svg" xmlns:xlink="http://www.w3.org/1999/xlink" x="0px" y="0px"
	 viewBox="0 0 235.1 255.2" style="enable-background:new 0 0 235.1 255.2;" xml:space="preserve">
<g>
	<path d="M220,0h-205C6.8,0,0,6.8,0,15.1v225.1c0,8.3,6.8,15.1,15.1,15.1h205c8.3,0,15.1-6.8,15.1-15.1V15.1
		C235.1,6.8,228.3,0,220,0z M6,74.2h223v165.9c0,5-4.1,9-9,9h-205c-5,0-9-4.1-9-9V74.2z M6,71.2v-4.9h223v4.9H6z M15.1,6h205
		c5,0,9,4.1,9,9v48.2H6V15.1C6,10.1,10.1,6,15.1,6z"/>
	<path d="M26.7,109h181.7c1.7,0,3.1-1.4,3.1-3.1V92c0-1.7-1.4-3.1-3.1-3.1H26.7c-1.7,0-3.1,1.4-3.1,3.1v13.9
		C23.6,107.6,25,109,26.7,109z M26.7,91.9L208.5,92v13.9c0,0.1,0,0.1-0.1,0.1l-181.8-0.1L26.7,91.9z"/>
	<path d="M181.3,132.1H52.8c-1.7,0-3.1,1.4-3.1,3.1v69.1c0,1.7,1.4,3.1,3.1,3.1h128.4c1.7,0,3.1-1.4,3.1-3.1v-69.1
		C184.4,133.5,183,132.1,181.3,132.1z M181.4,204.4c0,0.1,0,0.1-0.1,0.1l-128.5-0.1l0.1-69.2l128.5,0.1V204.4z"/>
	<path d="M72.1,45.2h90c1.7,0,3.1-1.4,3.1-3.1V28.2c0-1.7-1.4-3.1-3.1-3.1h-90c-1.7,0-3.1,1.4-3.1,3.1v13.9
		C68.9,43.8,70.3,45.2,72.1,45.2z M72.1,28.1l90.1,0.1v13.9c0,0.1,0,0.1-0.1,0.1L72,42.1L72.1,28.1z"/>
</g>
</svg>
